<?xml version="1.0" encoding="iso-8859-1"?>
<!-- Generator: Adobe Illustrator 19.0.0, SVG Export Plug-In . SVG Version: 6.00 Build 0)  -->
<svg xmlns="http://www.w3.org/2000/svg" xmlns:xlink="http://www.w3.org/1999/xlink" version="1.1" id="Layer_1" x="0px" y="0px" viewBox="0 0 512 512" style="enable-background:new 0 0 512 512;" xml:space="preserve">
<polygon style="fill:#FFD527;" points="452.886,391.229 59.117,391.229 188.384,194.986 256.002,92.326 322.595,193.419 "/>
<path style="fill:#EFC203;" d="M308.835,330.639c-0.604,5.98-3.329,11.269-7.361,15.191c4.352,4.451,7.053,10.529,7.053,17.249  v28.15H201.861v-28.15c0-6.83,2.774-13.008,7.25-17.472c-3.909-3.896-6.535-9.1-7.127-14.969l-13.6-135.654l67.617-102.659  l66.594,101.094L308.835,330.639z"/>
<g>
	<polygon style="fill:#FF318E;" points="284.297,328.174 226.518,328.174 200.025,63.915 310.79,63.915  "/>
	<rect x="226.522" y="363.081" style="fill:#FF318E;" width="57.346" height="56.56"/>
</g>
<path d="M494.157,260.968l-69.933,69.934l-38.642-58.665l15.005-15.004c3.611-3.612,3.611-9.467,0-13.078  c-3.61-3.612-9.466-3.611-13.078-0.001l-12.314,12.314l-7.156-10.865c-2.809-4.265-8.545-5.443-12.809-2.636  c-4.265,2.811-5.446,8.545-2.636,12.81l83.13,126.203H293.111v-18.902c0-5.107-4.14-9.247-9.247-9.247h-57.346  c-5.107,0-9.247,4.14-9.247,9.247v18.902H76.283l127.006-192.816l6.809,67.91c0.509,5.081,5.028,8.783,10.123,8.28  c5.082-0.509,8.789-5.043,8.279-10.124L210.246,73.162h90.323l-24.64,245.765h-41.045l-2.891-28.833  c-0.509-5.082-5.042-8.783-10.123-8.28c-5.082,0.509-8.789,5.043-8.279,10.124l3.725,37.159c0.473,4.726,4.451,8.325,9.201,8.325  h57.778c4.75,0,8.727-3.599,9.201-8.325l14.187-141.499l23.86,36.223c2.811,4.266,8.546,5.446,12.809,2.636  c4.265-2.811,5.446-8.544,2.635-12.81l-10.435-15.843L456.017,78.352c3.611-3.611,3.611-9.467,0.001-13.078  c-3.612-3.611-9.467-3.612-13.078-0.001L326.166,182.035l-15.557-23.618l6.476-64.597c0.017-0.017,0.034-0.03,0.051-0.046  l77.68-77.68c3.611-3.612,3.611-9.467,0-13.079c-3.611-3.61-9.467-3.61-13.078,0L319.993,64.76c0.236-2.574-0.611-5.13-2.348-7.05  c-1.753-1.937-4.244-3.043-6.858-3.043h-77.993l38.881-38.881c3.611-3.612,3.611-9.467,0-13.079c-3.611-3.61-9.467-3.61-13.078,0  l-51.96,51.96h-6.616c-2.613,0-5.104,1.106-6.858,3.043c-1.753,1.938-2.605,4.528-2.344,7.127l0.514,5.133L4.763,256.545  c-3.611,3.612-3.611,9.467,0,13.079c1.806,1.805,4.172,2.708,6.539,2.708s4.733-0.903,6.539-2.708l175.88-175.881l6.641,66.242  l-48.069,72.978c-0.724,0.405-1.409,0.908-2.025,1.523l-99.992,99.993c-3.611,3.612-3.611,9.467,0,13.079  c1.806,1.805,4.172,2.708,6.539,2.708s4.733-0.903,6.539-2.708l39.425-39.425l-51.384,78.009c-1.871,2.84-2.032,6.479-0.418,9.474  c1.613,2.994,4.74,4.861,8.141,4.861h48.608l-91.929,91.927c-3.611,3.612-3.611,9.467,0,13.079c1.806,1.805,4.172,2.708,6.539,2.708  c2.366,0,4.733-0.903,6.539-2.708l105.007-105.007h83.388v13.917l-78.011,78.011c-3.611,3.612-3.611,9.467,0,13.079  c1.806,1.805,4.172,2.708,6.539,2.708c2.366,0,4.733-0.903,6.539-2.708l76.595-76.595h54.931c5.107,0,9.247-4.14,9.247-9.247  v-19.164h61.538l-95.737,95.738c-3.611,3.612-3.611,9.467,0,13.079c1.806,1.805,4.172,2.708,6.539,2.708s4.733-0.903,6.539-2.708  l108.816-108.817h72.081c3.401,0,6.527-1.867,8.141-4.861c1.613-2.995,1.452-6.633-0.418-9.474l-25.998-39.469l72.624-72.625  c3.612-3.612,3.612-9.467,0-13.079C503.623,257.359,497.768,257.359,494.157,260.968z M274.617,410.392h-38.85v-38.067h38.85  V410.392z"/>
<path d="M494.157,389.969L391.722,492.403c-3.611,3.612-3.611,9.467,0,13.079c1.806,1.805,4.172,2.708,6.539,2.708  c2.366,0,4.733-0.903,6.539-2.708l102.436-102.434c3.612-3.612,3.612-9.467,0-13.079  C503.624,386.36,497.768,386.358,494.157,389.969z"/>
<path d="M494.157,137.506l-81.781,81.781c-3.612,3.612-3.612,9.467,0,13.079c1.806,1.805,4.172,2.708,6.539,2.708  s4.733-0.903,6.539-2.708l81.781-81.781c3.612-3.612,3.612-9.467,0-13.079C503.623,133.897,497.768,133.897,494.157,137.506z"/>
<path d="M475.419,55.121c2.367,0,4.733-0.903,6.539-2.708l25.276-25.274c3.611-3.611,3.612-9.467,0.001-13.078  c-3.612-3.612-9.467-3.611-13.078-0.001l-25.276,25.274c-3.611,3.611-3.611,9.467-0.001,13.078  C470.686,54.218,473.052,55.121,475.419,55.121z"/>
<path d="M34.19,376.721c3.611-3.612,3.611-9.467,0-13.079c-3.611-3.61-9.467-3.61-13.078,0L4.769,379.986  c-3.611,3.612-3.611,9.467,0,13.079c1.806,1.805,4.172,2.708,6.539,2.708s4.733-0.903,6.539-2.708L34.19,376.721z"/>
<path d="M11.308,134.793c2.367,0,4.733-0.903,6.539-2.708l115.991-115.99c3.611-3.612,3.611-9.467,0-13.079  c-3.611-3.61-9.467-3.61-13.078,0L4.769,119.007c-3.611,3.612-3.611,9.467,0,13.079C6.574,133.89,8.941,134.793,11.308,134.793z"/>
<g>
</g>
<g>
</g>
<g>
</g>
<g>
</g>
<g>
</g>
<g>
</g>
<g>
</g>
<g>
</g>
<g>
</g>
<g>
</g>
<g>
</g>
<g>
</g>
<g>
</g>
<g>
</g>
<g>
</g>
</svg>
