<?xml version="1.0" encoding="UTF-8"?><svg xmlns="http://www.w3.org/2000/svg" viewBox="0 0 425.2 425.2"><defs><style>.c{fill:#6aaaea;}.d{fill:#0c0300;}</style></defs><g id="a"/><g id="b"><g><path class="c" d="M198.37,237.41c-22.01,7.66-42.47,54.83-68.07,51.84-2.3-.27-4.16-1.1-5.65-2.38-2.27-26.41,4.13-58.24,5.56-64.9,1.61-4.63,2.74-7.51,2.74-7.51-28.88-4.35-44.87-9.97-44.87-9.97,0,0-39.22,127.31,12.63,141.6,51.85,14.29,90.41-41.22,90.41-41.22,0,0,29.25-75.12,7.24-67.46Z"/><path class="c" d="M403.82,367.6c-1.98-14.16-20.26-128.08-98.17-146.86-6.9-6.45-14.06-23.09-16.09-23.91-.29-.12-.93-.78-1.11-.2-.45,1.46-.32,5.55-1.68,7.29-3.24,4.17-8.65,6.93-8.65,6.93,0,0-20.38-1.95-36.56-4.64-.13-.02-.25-.04-.38-.06l1.75-7.91s-4.02,.61-8.05,4.11c-3.55,3.09-5.81,7.05-6.3,7.94-.3,.4-.6,.81-.92,1.27,.17,.06-2.93,8.98-2.77,9.04-2.29,3.18-3.59,2.5-5.25,6.26-7.79,2.58-14.87,6.21-21.27,10.56-6.51,34.12-13.53,86.04-21.4,130.18h226.86Z"/><path class="d" d="M219.34,107.23c.38,2.61-.18,5.19-.84,7.71-.61,2.34-1.23,4.67-1.77,7.02-1.11,4.78-2.03,9.6-2.84,14.45-1.56,9.43-2.68,18.93-3.78,28.43-.9,7.79-1.08,17.95,7.1,22.07,3.81,1.92,8.41,2.28,12.61,2.49,4.83,.24,9.67,0,14.49-.32,11.14-.72,22.28-1.47,33.42-2.21,.8-.05,.8-1.3,0-1.25l-28.79,1.91c-4.68,.31-9.37,.67-14.06,.72s-9.35-.1-13.81-1.24-7.64-3.9-9.15-8.23-1.14-8.83-.64-13.22c1.05-9.38,2.17-18.77,3.69-28.09,.86-5.24,1.85-10.46,3.06-15.63,1.13-4.83,3.24-9.9,2.5-14.92-.12-.79-1.32-.46-1.21,.33h0Z"/><path class="d" d="M226.55,110.02c2.91-.07,6.14,1.32,5.45,4.78-.32,1.62-1.12,3.17-1.76,4.69l-2.01,4.82c-.58,1.4-1.33,2.81-1.73,4.27-.26,.96-.29,2.12,.54,2.82,.92,.78,2.19,.43,3.22,.11,1.56-.5,3.08-1.12,4.56-1.82,.73-.34,.09-1.42-.63-1.08-1.5,.7-3.04,1.35-4.64,1.81-.85,.25-1.99,.35-1.97-.84,.01-.64,.33-1.28,.57-1.85,1.28-3.09,2.57-6.17,3.86-9.25,.98-2.36,2.21-5.22,.39-7.51-1.36-1.72-3.76-2.25-5.86-2.2-.8,.02-.81,1.27,0,1.25h0Z"/><path class="d" d="M242.45,111.24c6.79-1.79,14.1-.7,20.08,2.98,.69,.42,1.32-.66,.63-1.08-6.26-3.85-13.94-4.98-21.04-3.11-.78,.2-.45,1.41,.33,1.21h0Z"/><path class="d" d="M248.12,120.35c-.53,.44-1,1.01-1.3,1.64-.17,.35-.3,.75-.26,1.15,.04,.37,.17,.68,.41,.97,.38,.48,1.04,.75,1.65,.75,.65,0,1.28-.34,1.71-.82,.87-.97,1.43-2.92,.13-3.79-.58-.39-1.42-.36-2,0s-.98,1-1.13,1.66c-.11,.47-.09,.98,.27,1.34,.31,.31,.76,.39,1.18,.31,.84-.15,1.19-1,1.37-1.74,.09-.4-.19-.78-.6-.79-.67,0-1.27,.45-1.46,1.09-.09,.31,.11,.7,.44,.77s.67-.1,.77-.44c.03-.11-.04,.05,0,0,.02-.03,.03-.06,.05-.08,.03-.06-.07,.07,0,0s-.06,.03,0,0c.03-.02,.06-.03,.08-.05,.05-.04-.1,.03,0,0l.09-.02c-.08,0-.1,.01-.05,0,.02,0,.05,0,.07,0l-.6-.79c-.03,.11-.05,.22-.09,.33-.02,.06-.04,.12-.06,.18,0,0-.03,.09,0,.02s-.02,.03-.02,.04c-.03,.05-.06,.11-.09,.16-.06,.1,.05-.04-.03,.04-.02,.02-.04,.04-.06,.05-.06,.07,.1-.05,.03-.02-.02,0-.04,.02-.05,.03-.09,.06,.04-.02,.04-.01,0,0-.08,.03-.08,.02-.06,.02-.02-.02,0,0,0,0,.07,0,0,0-.02,0-.04,0-.06,0,0,0-.06,0-.06,0,.03-.04,.13,.03,.05,0-.04-.02-.04-.03,0,0,.07,.06,0,0-.01,0-.06-.05,.09,.09,.04,.03-.05-.05,.04,.06,.04,.05-.05-.08,.01,.1-.01-.02,.03,.13,0-.04,0-.08,0-.07,0,.02,0,.03,0-.03,.01-.07,.02-.1,.03-.12,.06-.23,.1-.34s-.04,.07,.02-.04c.03-.06,.06-.12,.1-.18,.03-.04,.06-.08,.08-.13-.06,.1,.01-.01,.05-.05s.07-.07,.11-.11c.02-.02,.04-.03,.06-.05-.06,.06-.04,.03,.02,0,.04-.03,.09-.05,.13-.07,.06-.04-.04,.02-.04,.02,0,0,.08-.03,.09-.03,.05-.01,.09-.02,.14-.03,.02,0,.09,0,.01,0-.1,0,.04,0,.06,0,.01,0,.14,0,.14,0,0,0-.16-.03-.03,0,.02,0,.05,0,.07,.02s.16,.04,.08,.02c-.07-.02,0,0,0,0,.03,.02,.07,.04,.1,.06,.07,.03-.04-.02-.03-.03l.05,.05s.09,.08,.03,.02c-.05-.05,0,0,.01,.02,.03,.04,.05,.09,.07,.13-.06-.12,0,.05,.02,.09,0,.03,0,.05,.01,.08,.02,.07,0-.03,0-.04,0,.06,0,.12,0,.18,0,.05,0,.11,0,.16,0,.09,.02-.1,0,0,0,.03-.01,.07-.02,.1-.02,.11-.05,.21-.08,.32-.02,.06-.04,.11-.06,.17,0,.02-.02,.05-.03,.07,.02-.05,.03-.07,0-.01-.05,.1-.1,.19-.15,.29-.03,.05-.06,.1-.1,.15,0,0-.05,.08-.01,.02s-.02,.02-.03,.03c-.07,.08-.14,.16-.22,.23-.02,.02-.05,.04-.07,.06,0,0,.09-.06,.03-.02-.05,.03-.09,.06-.14,.09s-.1,.05-.15,.08c-.06,.03,.03-.01,.04-.01-.02,0-.05,.02-.07,.03-.05,.02-.1,.03-.15,.04-.02,0-.04,0-.06,.01-.07,.02,.11,0,.04,0-.05,0-.24,.04-.28,0,.02,.02,.13,.03,.04,0-.02,0-.04,0-.06-.01-.05-.01-.1-.03-.15-.04-.02,0-.07-.02-.08-.03,0,0,.11,.06,.05,.02-.04-.03-.09-.05-.13-.07-.02-.01-.1-.05-.11-.07,0,0,.09,.09,.04,.03-.02-.03-.05-.05-.08-.07-.02-.02-.12-.13-.06-.06s-.04-.06-.05-.09l-.03-.06s.04,.13,.02,.03c0-.01-.05-.16-.04-.16,.01,0,0,.13,.01,.06,0-.04,0-.1,0-.14,0,.01-.02,.09,0,.02,0-.04,.02-.08,.03-.12,0-.03,.02-.06,.02-.09,0,0,.06-.15,.03-.09s.02-.03,.02-.04c.02-.04,.04-.07,.05-.11,.07-.14,.15-.27,.23-.39,.04-.06,.07-.11,.11-.16,.02-.02,.03-.05,.05-.07-.05,.07,0,0,.03-.03,.19-.23,.4-.43,.62-.62,.25-.21,.23-.67,0-.88-.27-.25-.61-.22-.88,0h0Z"/><path class="d" d="M225.75,118.64c-.67-.4-1.52-.2-2.07,.33-.51,.49-.81,1.25-.98,1.93-.18,.74-.11,1.57,.46,2.14s1.43,.57,2.1,.16c.59-.36,1.07-.95,1.36-1.56,.34-.71,.55-1.55,.23-2.3-.3-.7-1.08-1.18-1.84-.97-.65,.18-1.02,.77-1.21,1.38-.1,.3-.2,.69-.18,1.01,.04,.54,.46,.94,1.01,.92,.88-.02,1.55-.93,1.51-1.77-.02-.33-.27-.64-.62-.62-.32,.01-.65,.28-.62,.62,0,.06,0,.11,0,.17,0-.13,0,0-.01,.03,0,.03-.05,.14,0,.04-.02,.05-.05,.1-.08,.15,.05-.08,.01-.01,0,0,0,0-.14,.13-.04,.05-.04,.03-.08,.05-.12,.07-.04,.02-.03,.02,.03,0-.03,.01-.07,.02-.1,.03,.02-.04,.18,.02,.1,0h-.02c.12,.03,.2,.1,.24,.21v.05c.02-.08,.02-.08,0-.01,0-.03,.01-.07,.02-.1,.04-.2,.08-.39,.15-.58,.01-.04,.03-.08,.05-.12-.06,.14,.01-.01,.02-.03,.02-.04,.16-.24,.06-.12,.03-.04,.2-.18,.07-.09,.04-.03,.08-.05,.12-.07-.08,.05-.05,.02,.02,0,.12-.04-.1-.02,.04,0,.13,.02,.02,0,0,0,.03,0,.17,.08,.06,.02,0,0,.15,.09,.08,.04s.07,.07,.07,.06c.11,.1-.03-.07,.04,.05,.02,.03,.04,.07,.06,.1-.02-.07-.02-.06,0,.02,.01,.04,.03,.09,.03,.13,.03,.11,0,.35-.03,.49-.03,.11-.06,.22-.1,.33,0,0-.08,.19-.03,.09-.02,.06-.05,.12-.08,.17-.05,.1-.11,.21-.17,.31-.03,.04-.06,.09-.09,.13,0,0-.12,.16-.05,.08-.07,.08-.14,.16-.21,.24-.04,.04-.07,.08-.11,.11-.02,.01-.16,.14-.09,.08-.08,.07-.18,.12-.27,.17-.15,.09,.08-.01-.08,.03-.04,.01-.08,.02-.12,.03-.13,.04,.06,.03-.07,0-.19-.04,.07,.03-.04,0-.03,0-.14-.06-.03,0-.03-.02-.06-.03-.09-.05,.05,.04,.05,.05,.02,.02-.03-.03-.06-.06-.1-.09-.11-.11,.04,.09-.03-.05-.02-.03-.04-.06-.05-.1-.08-.14,.01,.1-.02-.06,0-.04-.02-.09-.03-.13-.03-.09,0,.16,0-.04,0-.07,0-.14,0-.21v-.07s0,.03,.01-.05c.05-.28,.15-.56,.25-.82,0,0,.08-.19,.04-.09,.03-.06,.05-.12,.08-.17,.06-.11,.12-.23,.2-.33-.06,.09,.06-.07,.06-.07,.04-.05,.09-.09,.14-.13-.1,.08,.04-.02,.06-.03,.03-.02,.16-.07,.06-.03,.05-.02,.11-.03,.16-.05-.13,.03,.05,0,.08,0h.03c-.08-.01-.08-.01,0,0,.07,.02,.07,.02,0,0,.03,.02,.07,.03,.1,.05,.28,.17,.7,.07,.86-.22s.08-.68-.22-.86h0Z"/><path class="d" d="M220.66,147.07c11.59,.39,23.18-.21,34.66-1.77,.79-.11,.46-1.31-.33-1.21-11.37,1.54-22.86,2.11-34.33,1.72-.8-.03-.8,1.22,0,1.25h0Z"/><path class="d" d="M220.84,146.61c-1.1,4.45-1.83,9.15-.62,13.66,1.1,4.1,3.7,7.6,8.05,8.42,8.49,1.61,16.25-3.92,21.14-10.35,1.56-2.05,2.93-4.24,4.22-6.47,1.2-2.08,2.81-4.34,3.19-6.76,.12-.79-1.08-1.13-1.21-.33-.31,1.99-1.56,3.8-2.53,5.53s-1.94,3.35-3.01,4.96c-2.2,3.3-4.81,6.42-8.07,8.71-3.07,2.15-6.71,3.65-10.49,3.73-2.05,.04-4.29-.26-6.04-1.4s-2.95-3.19-3.65-5.15c-1.67-4.6-.89-9.59,.24-14.22,.19-.78-1.01-1.11-1.21-.33h0Z"/><path class="d" d="M222.88,163.9c6.04-7.18,15.95-8.08,24.57-6.02,.78,.19,1.12-1.02,.33-1.21-9.02-2.16-19.46-1.18-25.78,6.34-.51,.61,.37,1.5,.88,.88h0Z"/><path class="c" d="M310.36,99.6c-.89-1.02-.61-2.72-.4-4.14,.98-6.59-2.32-13.3-7.26-17.77-4.94-4.47-11.33-7.01-17.75-8.82-11.18-3.14-23.41-4.25-34.23-.05-2.68,1.04-5.25,2.39-8.04,3.07-2.32,.56-4.73,.64-7.11,.85-8.24,.73-16.79,3.46-22.07,9.83-2.13,2.58-3.65,6.02-2.83,9.24-2.26,.27-4.42,1.36-6.03,3.92-5.48,8.72,2.32,12.58,2.32,12.58,.18,.08,.35,.15,.53,.22,.45,.23,.93,.41,1.41,.55,12.86,4.43,13.74-11.55,15.72-17.29,2.08-6.02,8.33-3.63,8.33-3.63l.11-.08c4.35,3.18,10.56,3.88,16.15,3.62,9.58-.44,19.08-2.72,27.83-6.66-2.87,5.03-2.17,11.71,1.22,16.4,3.4,4.69,9.18,7.4,14.97,7.6-4.54,1.68-9.83,4.25-10.33,9.07-.4,3.79,3.18,7.48,6.98,7.19-.11,.06-.22,.12-.33,.18-1.29,.72-6.02,3.62-5.72,7.65,.34,4.67,2.31,5.4,2.31,5.4,0,0,3.83-5.6,8.21-6.09,2.06-.23,3.87-.11,5.19,.31l3.11,2.52,1.53,3.77s8.73-5.03,10.73-20.33c1.09-8.32-.06-18.1-4.55-19.14Z"/><path class="d" d="M286.94,139.67c.14-4.29,5.18-6.83,8.96-6.99,4.44-.19,8.21,3.14,7.34,7.76-1.45,7.65-9.55,12.07-15.74,15.48-.7,.39-.07,1.47,.63,1.08,6.08-3.34,12.8-7.19,15.6-13.91,1.31-3.14,1.32-6.81-1.27-9.3s-6.51-2.85-9.85-1.75-6.79,3.76-6.92,7.62c-.03,.8,1.22,.8,1.25,0h0Z"/><path class="d" d="M289.51,155.45c-1.75,17.08-2.4,34.26-1.96,51.42,.02,.8,1.27,.81,1.25,0-.45-17.16,.21-34.34,1.96-51.42,.08-.8-1.17-.79-1.25,0h0Z"/><path class="d" d="M244.17,189.19c-1.82,7.4-3.54,14.83-5.17,22.28-.17,.78,1.03,1.12,1.21,.33,1.63-7.45,3.35-14.87,5.17-22.28,.19-.78-1.01-1.11-1.21-.33h0Z"/><path class="d" d="M251.98,248.81c.19-4.18,.44-8.82,3.38-12.1,1.33-1.49,3.13-2.59,5.17-2.67,2.32-.09,4.51,1.07,6.2,2.56,3.18,2.79,5.65,6.63,8.03,10.1s4.74,7.42,6.5,11.47c.26,.6,1.15,.25,1.16-.32,.11-3.91,1.83-7.82,3.21-11.43s3.03-6.85,5.35-9.84c4.15-5.32,9.51-9.59,13.23-15.27,.44-.68-.64-1.3-1.08-.63-3.88,5.94-9.6,10.33-13.8,16.02-2.21,2.99-3.77,6.35-5.07,9.81s-2.98,7.42-3.09,11.33l1.16-.32c-3.09-7.1-7.65-13.82-12.68-19.7-2.21-2.59-5.15-4.96-8.72-5.04-3.03-.07-5.66,1.76-7.36,4.16-2.42,3.42-2.67,7.81-2.86,11.86-.04,.8,1.21,.8,1.25,0h0Z"/><path class="d" d="M240.22,197.8c-6.13,3.12-11.1,8.4-13.53,14.87-.62,1.66-.96,3.4-1.46,5.09-.69,2.35-1.93,4.11-3.52,5.93-1.37,1.55-2.59,3.13-3.42,5.05s-1.3,3.88-1.61,5.9c-.79,5.16-.5,10.49-2.32,15.46-.11,.31,.13,.69,.44,.77,4.98,1.28,5.95-5.25,5.96-8.67,0-4.13-.61-10.46,4.15-12.43l-.79-.6c-.67,7.08,4.25,13.06,10.61,15.51,3.3,1.27,6.57,2.01,9.13,4.63,2.05,2.1,3.35,4.79,4.22,7.56,2.02,6.45,2.28,13.58,2.24,20.28-.06,8.54-.99,17.06-1.78,25.55l-2.72,29.35c-.07,.8,1.18,.8,1.25,0l2.42-26.12c.79-8.52,1.74-17.04,2.01-25.6,.22-6.99,.04-14.21-1.49-21.07-1.19-5.32-3.65-10.69-8.64-13.41-1.73-.94-3.63-1.44-5.48-2.09-2.01-.7-3.91-1.69-5.55-3.06-3.41-2.85-5.39-7.08-4.96-11.55,.04-.37-.43-.75-.79-.6-3.26,1.35-4.7,4.75-5.02,8.08-.24,2.46,.07,4.93-.11,7.4-.16,2.3-1.11,6.45-4.32,5.62l.44,.77c2.99-8.18,.31-18.02,6.34-25.08,1.29-1.51,2.71-2.94,3.58-4.74s1.27-3.85,1.82-5.8c.77-2.72,2.06-5.27,3.7-7.56,2.54-3.56,5.95-6.38,9.84-8.36,.72-.37,.09-1.44-.63-1.08h0Z"/><path class="d" d="M239.82,206.92c-2.63,3.22-4.3,6.98-5.21,11.02-.79,3.49-1.42,7.42-1.18,11,.27,4.08,1.26,7.95,3.76,11.25,2.66,3.51,6.13,6.42,9.88,8.7,.43,.26,.91-.08,.94-.54,.28-3.9,.99-8.11,3.19-11.43s6.14-5.41,9.62-7.41c3.73-2.15,7.91-3.52,11.51-5.89s6.63-5.35,9.5-8.47c3.35-3.64,6.88-7.33,9.44-11.59,.42-.69-.66-1.32-1.08-.63-2.4,3.98-5.67,7.43-8.8,10.85s-6.34,6.71-10.24,9.11c-1.91,1.18-3.99,2.06-6.03,2.99s-3.91,1.96-5.82,3.05c-3.31,1.89-6.74,3.87-8.98,7.05-2.49,3.54-3.27,8.13-3.57,12.36l.94-.54c-3.49-2.13-6.73-4.82-9.27-8.05s-3.59-7.14-3.77-11.21c-.15-3.36,.42-7,1.16-10.27,.86-3.82,2.4-7.43,4.89-10.47,.51-.62-.37-1.51-.88-.88h0Z"/><path class="d" d="M288.68,196.95c2.27,.48,3.51,3.64,4.57,5.43,1.35,2.29,2.66,4.6,3.93,6.93,2.15,3.95,3.9,8.53,7.39,11.51l.13-.98c-.22,.19-.47,.32-.75,.38-.76,.24-.44,1.45,.33,1.21,.39-.12,.71-.27,1.05-.51,.3-.21,.46-.7,.13-.98-1.87-1.6-3.15-3.65-4.3-5.8-1.27-2.37-2.49-4.76-3.8-7.11s-2.7-4.76-4.11-7.1c-1.03-1.71-2.11-3.74-4.23-4.2-.78-.17-1.12,1.04-.33,1.21h0Z"/><path class="d" d="M288.25,203.04c.95-.37,.54-1.92-.43-1.55-7.81,3.02-15.97,5.13-24.35,5.57-7.38,.38-14.71-.57-21.86-2.4-1-.26-1.43,1.29-.43,1.55h.01l-1.15,3.09s-1.15,.9-2.17,1.87c-1.03,.97-3.81,10.38-3.09,20.4,.72,10.01,12.27,16.08,12.27,16.08,0,0,.32-6.35,2.61-10.15s10.04-9.15,18.97-12.83c8.93-3.68,19.92-18.13,19.92-18.13l-.31-3.48h0Z"/><path class="d" d="M191.29,271.23c-1.8,12.99-3.6,25.97-5.38,38.96-1.67,12.15-3.3,24.31-5.36,36.41-1.2,7.03-2.55,14.03-4.07,20.99-.17,.78,1.03,1.12,1.21,.33,5.36-24.45,8.32-49.34,11.75-74.11l3.08-22.24c.11-.79-1.1-1.13-1.21-.33h0Z"/><path class="d" d="M332.67,283.16c4.18,21.74,7,43.71,8.28,65.81,.36,6.3,.6,12.6,.74,18.9,.02,.8,1.27,.81,1.25,0-.48-22.16-2.37-44.26-5.77-66.17-.98-6.31-2.08-12.6-3.29-18.87-.15-.79-1.36-.46-1.21,.33h0Z"/><path class="d" d="M114.16,164.43c4.12-2.29,8.49-4.07,13.05-5.26,2.38-.62,4.93-1.27,7.4-1.33s4.45,1.19,6.22,2.92c3.24,3.18,5.83,7.05,7.53,11.25,.86,2.12,1.68,4.67,1.07,6.96-.3,1.1-1,2.11-2.25,2.1-.97-.01-1.88-.61-2.19-1.53-.25-.76-1.46-.43-1.21,.33,.94,2.79,4.78,3.31,6.31,.74,2.1-3.54-.17-8.52-1.82-11.76-1.93-3.78-4.61-7.51-7.92-10.19-1.62-1.31-3.4-2.08-5.51-2.06-2.23,.01-4.51,.55-6.66,1.06-5.12,1.21-10.05,3.15-14.65,5.71-.7,.39-.07,1.47,.63,1.08h0Z"/><path class="d" d="M120.81,166.37c6.29-.19,13.98-.49,18.47,4.77,1.09,1.28,1.9,2.77,2.62,4.28,.88,1.84,1.62,3.59,1.4,5.68-.19,1.87-.78,3.75-1.45,5.49-.51,1.33-1.45,4.37-3.16,4.58-.79,.1-.8,1.35,0,1.25,1.67-.21,2.53-1.49,3.23-2.9,.95-1.91,1.69-3.93,2.19-6s.73-4.15-.02-6.19c-.67-1.83-1.56-3.65-2.61-5.28-4.54-7.08-13.14-7.16-20.68-6.92-.8,.02-.81,1.27,0,1.25h0Z"/><path class="d" d="M119.95,179.95c2.1,.89,4.24,1.63,6.45,2.17,.52,.13,1.05,.25,1.58,.36,.32,.06,1.4,.1,1.64,.31,.3,.26,.28,1.14,.35,1.5,.11,.6,.21,1.21,.33,1.81,.6,3,2.48,6.86,6.23,6.05,1.61-.35,2.45-1.74,2.64-3.29,.24-1.93-.01-4.04-.38-5.93-.74-3.78-2.87-6.87-6.2-8.83-3.99-2.35-8.61-2.72-13.13-2.58-.8,.03-.81,1.28,0,1.25,3.59-.11,7.15,.06,10.53,1.43s5.99,3.77,7.11,7.18c.58,1.76,.79,3.6,.86,5.44,.06,1.51,.14,3.74-1.76,4.12-1.62,.32-3.05-.83-3.76-2.18-.85-1.63-1.05-3.57-1.37-5.36-.13-.7-.17-1.42-.9-1.75-.86-.38-1.99-.4-2.91-.62-2.28-.53-4.52-1.26-6.68-2.17-.73-.31-1.37,.77-.63,1.08h0Z"/><path class="d" d="M112.03,164.92c-4.07,7.36-4.31,15.92-3.41,24.09,.44,3.99,.86,7.94,.02,11.92s-3.07,7.25-5.89,10.31c-.54,.59,.34,1.48,.88,.88,2.55-2.79,4.74-5.63,5.82-9.31s1.11-7.6,.69-11.39c-.97-8.79-1.48-17.86,2.95-25.87,.39-.7-.69-1.34-1.08-.63h0Z"/><path class="d" d="M123.99,182.32c.83,1.01,.95,2.38,1.06,3.63s.16,2.52,.13,3.79c-.08,2.6-.59,5.18-2.01,7.4-.43,.68,.65,1.31,1.08,.63,1.58-2.48,2.13-5.39,2.19-8.29,.03-1.46-.05-2.93-.22-4.38-.16-1.34-.47-2.59-1.34-3.66-.51-.62-1.39,.27-.88,.88h0Z"/><path class="d" d="M139.21,191.44c-.08,5.25-3.2,9.72-6.57,13.5-1.69,1.9-3.47,3.71-5.11,5.64-.74,.86-1.45,1.75-2.11,2.67s-1.43,1.83-1.5,2.95c-.05,.8,1.2,.8,1.25,0,.08-1.2,1.71-2.86,2.42-3.74,.77-.96,1.59-1.88,2.41-2.79,1.74-1.92,3.56-3.77,5.18-5.79,2.88-3.58,5.21-7.74,5.28-12.44,.01-.8-1.24-.8-1.25,0h0Z"/><path class="d" d="M124.11,159.25c1.93-2.71,4.84-5.05,8.12-5.85,3.52-.86,5.98,1.66,8.48,3.69s5.23,3.54,7.9,5.24c1.26,.81,3.09,1.72,3.79,3.11,1.27,2.51-2.14,3.34-3.87,3.15-.8-.09-.79,1.16,0,1.25,1.75,.19,3.69-.13,4.76-1.69,.9-1.32,.69-2.88-.33-4.08-1.26-1.49-3.2-2.51-4.83-3.52-1.91-1.18-3.86-2.32-5.66-3.67-2.93-2.19-5.63-5.43-9.68-4.87s-7.51,3.44-9.76,6.59c-.47,.66,.62,1.28,1.08,.63h0Z"/><path class="d" d="M148.18,160.1c1.99-3.46,.14-7.79,2.27-11.16,1.12-1.77,2.93-3.16,4.56-4.44,1.81-1.41,3.74-2.66,5.74-3.77,.7-.39,.07-1.47-.63-1.08-2.03,1.13-3.97,2.4-5.81,3.82-1.65,1.27-3.35,2.63-4.59,4.31-1.18,1.6-1.56,3.43-1.64,5.38-.09,2.13,.11,4.38-.99,6.3-.4,.7,.68,1.33,1.08,.63h0Z"/><path class="d" d="M157.1,145.96l6.75-4.03c.69-.41,.06-1.49-.63-1.08l-6.75,4.03c-.69,.41-.06,1.49,.63,1.08h0Z"/><path class="d" d="M160.77,147.2c1.71-1.36,3.52-2.6,5.4-3.7,.69-.41,.07-1.49-.63-1.08-1.98,1.16-3.86,2.47-5.66,3.9-.26,.21-.22,.66,0,.88,.26,.26,.62,.21,.88,0h0Z"/><path class="d" d="M167.6,144.37c-3.5,2.73-6.86,5.64-10.17,8.6-1.58,1.42-3.17,2.84-4.73,4.28-1.33,1.24-2.57,2.6-3.05,4.4-.21,.78,1,1.11,1.21,.33,.49-1.83,1.92-3.11,3.27-4.35,1.56-1.42,3.12-2.84,4.69-4.24,3.14-2.81,6.34-5.56,9.66-8.14,.63-.49-.26-1.37-.88-.88h0Z"/><path class="d" d="M153.67,143.82c-3.01-1.41-2.67-5.07-1.84-7.72,.9-2.89,2.01-5.75,4.33-7.79,4.15-3.64,10.05-5.03,15.46-4.44,4.97,.55,11.3,3.03,13.3,8.04,1.14,2.85,.51,6.08-.29,8.94-.73,2.61-1.84,5.22-3.66,7.28-2.22,2.52-5.29,3.63-8.58,3.88s-6.98-.08-9.97-1.83c-.7-.41-1.33,.67-.63,1.08,2.94,1.72,6.38,2.17,9.74,2.05s6.46-.88,9-3c2.32-1.93,3.8-4.67,4.79-7.48s1.8-6.22,1.32-9.3c-.98-6.26-7.84-9.72-13.5-10.68-5.98-1.02-12.44,.28-17.25,4.08-3.04,2.41-4.57,6.06-5.53,9.73-.78,2.99-.48,6.78,2.68,8.25,.72,.34,1.36-.74,.63-1.08h0Z"/><path class="d" d="M84.41,228.36c10.82,8.24,24.94,8.57,37.96,8.7,.8,0,.81-1.24,0-1.25-12.82-.12-26.67-.41-37.32-8.53-.64-.49-1.26,.6-.63,1.08h0Z"/><path class="d" d="M130.82,217.32c-5.37,20.19-7.85,41.13-7.33,62.02,.15,5.94,.55,11.87,1.18,17.78,.08,.79,1.34,.8,1.25,0-2.21-20.74-1.47-41.78,2.26-62.31,1.05-5.77,2.34-11.49,3.84-17.15,.21-.78-1-1.11-1.21-.33h0Z"/><ellipse class="d" cx="240.14" cy="268.55" rx="2.61" ry="2.85"/><ellipse class="d" cx="237.17" cy="305.73" rx="2.61" ry="2.85"/></g><path class="d" d="M26.09,368.89h38.74c13.97,0,27.93,0,41.9,0H399.37c5.04,0,10.09,.07,15.13,0,.22,0,.44,0,.66,0,.8,0,.81-1.25,0-1.25H227.63c-18.9,0-37.8,0-56.7,0-17.5,0-35,0-52.51,0H41.88c-5.04,0-10.09-.07-15.13,0-.22,0-.44,0-.66,0-.8,0-.81,1.25,0,1.25h0Z"/></g></svg>